<svg width="31" height="31" viewBox="0 0 31 31" fill="none" xmlns="http://www.w3.org/2000/svg">
  <path d="M23.9916 19.0829L16.8171 26.52C16.5793 26.7664 16.2533 26.9083 15.9108 26.9145C15.5684 26.9206 15.2375 26.7905 14.991 26.5528L7.55394 19.3782C7.31431 19.1389 7.17828 18.815 7.17514 18.4763C7.172 18.1377 7.30201 17.8113 7.53715 17.5676C7.7723 17.3238 8.09377 17.1822 8.43233 17.1731C8.7709 17.1641 9.09946 17.2884 9.34726 17.5193L14.5402 22.5289L14.2329 5.42614C14.2268 5.08363 14.3569 4.75269 14.5948 4.50615C14.8326 4.2596 15.1587 4.11764 15.5012 4.11148C15.8437 4.10533 16.1746 4.23549 16.4212 4.47334C16.6677 4.71118 16.8097 5.03723 16.8158 5.37974L17.1231 22.4825L22.1327 17.2896C22.2496 17.1641 22.3904 17.0632 22.5467 16.9927C22.703 16.9222 22.8719 16.8835 23.0433 16.8789C23.2148 16.8744 23.3854 16.904 23.5453 16.9661C23.7052 17.0281 23.8511 17.1214 23.9745 17.2405C24.098 17.3596 24.1965 17.5021 24.2642 17.6596C24.332 17.8172 24.3678 17.9866 24.3694 18.1582C24.3709 18.3297 24.3384 18.4998 24.2735 18.6585C24.2087 18.8173 24.1128 18.9616 23.9916 19.0829Z" fill="#FF7300" />
</svg>