<svg width="31" height="31" viewBox="0 0 31 31" fill="none" xmlns="http://www.w3.org/2000/svg">
  <g clip-path="url(#clip0_0_23)">
    <path d="M18.9965 7.27983L26.3035 14.5868C26.5457 14.829 26.6817 15.1575 26.6817 15.5C26.6817 15.8425 26.5457 16.171 26.3035 16.4132L18.9965 23.7202C18.7529 23.9555 18.4267 24.0856 18.088 24.0827C17.7493 24.0798 17.4253 23.9439 17.1859 23.7044C16.9464 23.4649 16.8105 23.141 16.8076 22.8023C16.8046 22.4636 16.9348 22.1374 17.1701 21.8937L22.2722 16.7917H5.16667C4.8241 16.7917 4.49555 16.6556 4.25332 16.4133C4.01109 16.1711 3.875 15.8426 3.875 15.5C3.875 15.1574 4.01109 14.8289 4.25332 14.5866C4.49555 14.3444 4.8241 14.2083 5.16667 14.2083H22.2722L17.1701 9.10625C17.0468 8.98709 16.9484 8.84456 16.8807 8.68698C16.813 8.52939 16.7773 8.3599 16.7758 8.18839C16.7744 8.01688 16.807 7.8468 16.872 7.68805C16.9369 7.52931 17.0328 7.3851 17.1541 7.26382C17.2754 7.14254 17.4196 7.04663 17.5784 6.98168C17.7371 6.91674 17.9072 6.88406 18.0787 6.88555C18.2502 6.88704 18.4197 6.92267 18.5773 6.99036C18.7349 7.05806 18.8774 7.15646 18.9965 7.27983Z" fill="#FF7300" />
  </g>
  <defs>
    <clipPath id="clip0_0_23">
      <rect width="31" height="31" fill="white" />
    </clipPath>
  </defs>
</svg>