<svg width="32" height="24" viewBox="0 0 32 24" fill="none" xmlns="http://www.w3.org/2000/svg">
  <path d="M28.9167 12.8125V21.875C28.9167 22.1955 28.7806 22.5028 28.5383 22.7294C28.2961 22.956 27.9676 23.0833 27.625 23.0833H26.3333C25.9908 23.0833 25.6622 22.956 25.42 22.7294C25.1778 22.5028 25.0417 22.1955 25.0417 21.875V20.6667H6.95833V21.875C6.95833 22.1955 6.82225 22.5028 6.58001 22.7294C6.33778 22.956 6.00924 23.0833 5.66667 23.0833H4.375C4.03243 23.0833 3.70389 22.956 3.46165 22.7294C3.21942 22.5028 3.08333 22.1955 3.08333 21.875V12.8125L1.47779 12.4379C1.19847 12.3725 0.950544 12.2216 0.773388 12.0092C0.596232 11.7969 0.500008 11.5352 0.5 11.2658L0.5 10.3958C0.5 10.2356 0.568043 10.0819 0.68916 9.96862C0.810277 9.85532 0.974548 9.79167 1.14583 9.79167H3.63746L6.28667 4.00617C6.48591 3.57136 6.8172 3.20081 7.23945 2.94048C7.6617 2.68015 8.15634 2.54148 8.66204 2.54167H10.8333V0.125H14.7083V2.54167H17.2917V0.125H21.1667V2.54167H23.338C23.8434 2.54172 24.3378 2.6805 24.7598 2.94082C25.1818 3.20113 25.5129 3.57155 25.712 4.00617L28.3638 9.79167H30.8542C31.0255 9.79167 31.1897 9.85532 31.3108 9.96862C31.432 10.0819 31.5 10.2356 31.5 10.3958V11.2658C31.4999 11.5354 31.4035 11.7971 31.2261 12.0095C31.0487 12.2219 30.8005 12.3727 30.5209 12.4379L28.9167 12.8125ZM5.66667 14.625V17.0417C5.66667 17.3621 5.80275 17.6695 6.04499 17.8961C6.28722 18.1227 6.61576 18.25 6.95833 18.25H11.1498C11.2613 18.2498 11.3709 18.2227 11.4679 18.1711C11.5648 18.1196 11.6459 18.0454 11.7031 17.9558C11.7603 17.8663 11.7918 17.7644 11.7944 17.6601C11.797 17.5558 11.7708 17.4526 11.7181 17.3607C10.6783 15.5361 8.66075 14.625 5.66667 14.625ZM26.3333 14.625C23.3405 14.625 21.323 15.5373 20.2806 17.3607C20.2279 17.4527 20.2016 17.556 20.2043 17.6604C20.207 17.7648 20.2386 17.8668 20.296 17.9564C20.3533 18.0459 20.4346 18.1201 20.5317 18.1716C20.6288 18.223 20.7386 18.25 20.8502 18.25H25.0417C25.3842 18.25 25.7128 18.1227 25.955 17.8961C26.1972 17.6695 26.3333 17.3621 26.3333 17.0417V14.625ZM8.25 4.95833L6.37579 9.34337C6.29752 9.52665 6.26843 9.72507 6.29106 9.92129C6.31369 10.1175 6.38736 10.3056 6.50561 10.469C6.62387 10.6324 6.78312 10.7663 6.96944 10.8588C7.15577 10.9514 7.36349 10.9999 7.57446 11H24.4255C24.6364 10.9996 24.8439 10.9509 25.0301 10.8583C25.2163 10.7656 25.3754 10.6318 25.4936 10.4685C25.6117 10.3051 25.6854 10.1172 25.7082 9.92109C25.731 9.72499 25.7021 9.52666 25.6242 9.34337L23.75 4.95833H8.25Z" fill="#FF7300" />
</svg>