<svg width="22" height="22" viewBox="0 0 22 22" fill="none" xmlns="http://www.w3.org/2000/svg">
  <path fill-rule="evenodd" clip-rule="evenodd" d="M2.68245 0.460429C2.38608 0.17418 1.98913 0.015789 1.57711 0.0193694C1.16508 0.0229498 0.770949 0.188215 0.479594 0.479571C0.188238 0.770926 0.0229727 1.16506 0.0193923 1.57708C0.0158119 1.98911 0.174203 2.38605 0.460452 2.68243L8.77802 11L0.460452 19.3176C0.310364 19.4625 0.190649 19.6359 0.108292 19.8277C0.0259352 20.0194 -0.0174146 20.2256 -0.0192278 20.4342C-0.0210409 20.6429 0.0187189 20.8498 0.0977317 21.0429C0.176745 21.2361 0.293428 21.4115 0.440974 21.559C0.588519 21.7066 0.763972 21.8233 0.957095 21.9023C1.15022 21.9813 1.35714 22.0211 1.5658 22.0193C1.77445 22.0174 1.98065 21.9741 2.17237 21.8917C2.36409 21.8094 2.53749 21.6897 2.68245 21.5396L11 13.222L19.3176 21.5396C19.614 21.8258 20.0109 21.9842 20.4229 21.9806C20.835 21.9771 21.2291 21.8118 21.5205 21.5204C21.8118 21.2291 21.9771 20.8349 21.9807 20.4229C21.9842 20.0109 21.8258 19.6139 21.5396 19.3176L13.222 11L21.5396 2.68243C21.8258 2.38605 21.9842 1.98911 21.9807 1.57708C21.9771 1.16506 21.8118 0.770926 21.5205 0.479571C21.2291 0.188215 20.835 0.0229498 20.4229 0.0193694C20.0109 0.015789 19.614 0.17418 19.3176 0.460429L11 8.778L2.68245 0.460429Z" fill="black" />
</svg>