<svg width="20" height="20" viewBox="0 0 20 20" fill="none" xmlns="http://www.w3.org/2000/svg">
  <path fill-rule="evenodd" clip-rule="evenodd" d="M11.9 1.66666C12.2498 1.66675 12.5907 1.7769 12.8744 1.9815C13.1581 2.18611 13.3703 2.47479 13.4808 2.80666L13.9333 4.16666H16.6667C16.8877 4.16666 17.0996 4.25446 17.2559 4.41074C17.4122 4.56702 17.5 4.77898 17.5 5C17.5 5.22101 17.4122 5.43297 17.2559 5.58925C17.0996 5.74553 16.8877 5.83333 16.6667 5.83333L16.6642 5.8925L15.9417 16.0117C15.8966 16.6422 15.6143 17.2322 15.1517 17.663C14.6891 18.0937 14.0805 18.3333 13.4483 18.3333H6.55167C5.91955 18.3333 5.31092 18.0937 4.84831 17.663C4.38569 17.2322 4.10342 16.6422 4.05833 16.0117L3.33583 5.89166C3.33433 5.87225 3.33349 5.8528 3.33333 5.83333C3.11232 5.83333 2.90036 5.74553 2.74408 5.58925C2.5878 5.43297 2.5 5.22101 2.5 5C2.5 4.77898 2.5878 4.56702 2.74408 4.41074C2.90036 4.25446 3.11232 4.16666 3.33333 4.16666H6.06667L6.51917 2.80666C6.62975 2.47465 6.84203 2.18587 7.12592 1.98126C7.4098 1.77665 7.75089 1.66658 8.10083 1.66666H11.9ZM7.5 8.33333C7.29589 8.33336 7.09889 8.40829 6.94636 8.54393C6.79383 8.67956 6.69638 8.86646 6.6725 9.06916L6.66667 9.16666V14.1667C6.6669 14.3791 6.74823 14.5834 6.89404 14.7378C7.03985 14.8923 7.23913 14.9852 7.45116 14.9976C7.6632 15.0101 7.87198 14.9411 8.03486 14.8048C8.19774 14.6685 8.30241 14.4751 8.3275 14.2642L8.33333 14.1667V9.16666C8.33333 8.94565 8.24554 8.73369 8.08926 8.57741C7.93298 8.42113 7.72101 8.33333 7.5 8.33333ZM12.5 8.33333C12.279 8.33333 12.067 8.42113 11.9107 8.57741C11.7545 8.73369 11.6667 8.94565 11.6667 9.16666V14.1667C11.6667 14.3877 11.7545 14.5996 11.9107 14.7559C12.067 14.9122 12.279 15 12.5 15C12.721 15 12.933 14.9122 13.0893 14.7559C13.2455 14.5996 13.3333 14.3877 13.3333 14.1667V9.16666C13.3333 8.94565 13.2455 8.73369 13.0893 8.57741C12.933 8.42113 12.721 8.33333 12.5 8.33333ZM11.9 3.33333H8.1L7.8225 4.16666H12.1775L11.9 3.33333Z" fill="#888888" />
</svg>