<svg width="30" height="30" viewBox="0 0 30 30" fill="none" xmlns="http://www.w3.org/2000/svg">
  <path d="M14.0051 21.6199L4.63013 12.2449C4.36595 11.9807 4.21754 11.6224 4.21754 11.2488C4.21754 10.8752 4.36595 10.5169 4.63013 10.2527C4.89431 9.9885 5.25262 9.84009 5.62622 9.84009C5.99983 9.84009 6.35814 9.9885 6.62232 10.2527L15.0001 18.6328L23.3801 10.255C23.5109 10.1242 23.6662 10.0205 23.8371 9.94966C24.0081 9.87887 24.1912 9.84243 24.3762 9.84243C24.5612 9.84243 24.7444 9.87887 24.9153 9.94966C25.0862 10.0205 25.2415 10.1242 25.3723 10.255C25.5031 10.3858 25.6069 10.5411 25.6777 10.712C25.7485 10.8829 25.7849 11.0661 25.7849 11.2511C25.7849 11.4361 25.7485 11.6193 25.6777 11.7902C25.6069 11.9611 25.5031 12.1164 25.3723 12.2472L15.9973 21.6222C15.8665 21.7532 15.7112 21.857 15.5401 21.9278C15.3691 21.9986 15.1858 22.0349 15.0007 22.0347C14.8157 22.0344 14.6324 21.9977 14.4616 21.9265C14.2907 21.8553 14.1356 21.7511 14.0051 21.6199Z" fill="#525252" fill-opacity="0.5" />
</svg>