<svg width="17" height="16" viewBox="0 0 17 16" fill="none" xmlns="http://www.w3.org/2000/svg">
  <g clip-path="url(#clip0_0_228)">
    <g filter="url(#filter0_dd_0_228)">
      <path d="M8.10704 11.5134L10.8737 13.1867C11.3804 13.4934 12.0004 13.04 11.867 12.4667L11.1337 9.32005L13.5804 7.20005C14.027 6.81338 13.787 6.08005 13.2004 6.03338L9.98038 5.76005L8.72038 2.78671C8.49371 2.24671 7.72038 2.24671 7.49371 2.78671L6.23371 5.75338L3.01371 6.02671C2.42704 6.07338 2.18704 6.80671 2.63371 7.19338L5.08038 9.31338L4.34704 12.46C4.21371 13.0334 4.83371 13.4867 5.34038 13.18L8.10704 11.5134Z" fill="black" fill-opacity="0.35" shape-rendering="crispEdges" />
    </g>
  </g>
  <defs>
    <filter id="filter0_dd_0_228" x="-2.5976" y="-2.61829" width="19.4093" height="18.9039" filterUnits="userSpaceOnUse" color-interpolation-filters="sRGB">
      <feFlood flood-opacity="0" result="BackgroundImageFix" />
      <feColorMatrix in="SourceAlpha" type="matrix" values="0 0 0 0 0 0 0 0 0 0 0 0 0 0 0 0 0 0 127 0" result="hardAlpha" />
      <feOffset dx="1" dy="1" />
      <feGaussianBlur stdDeviation="1" />
      <feComposite in2="hardAlpha" operator="out" />
      <feColorMatrix type="matrix" values="0 0 0 0 0 0 0 0 0 0 0 0 0 0 0 0 0 0 0.25 0" />
      <feBlend mode="normal" in2="BackgroundImageFix" result="effect1_dropShadow_0_228" />
      <feColorMatrix in="SourceAlpha" type="matrix" values="0 0 0 0 0 0 0 0 0 0 0 0 0 0 0 0 0 0 127 0" result="hardAlpha" />
      <feOffset dx="-1" dy="-1" />
      <feGaussianBlur stdDeviation="2" />
      <feComposite in2="hardAlpha" operator="out" />
      <feColorMatrix type="matrix" values="0 0 0 0 1 0 0 0 0 1 0 0 0 0 1 0 0 0 1 0" />
      <feBlend mode="normal" in2="effect1_dropShadow_0_228" result="effect2_dropShadow_0_228" />
      <feBlend mode="normal" in="SourceGraphic" in2="effect2_dropShadow_0_228" result="shape" />
    </filter>
    <clipPath id="clip0_0_228">
      <rect width="16" height="16" fill="white" transform="translate(0.107056)" />
    </clipPath>
  </defs>
</svg>