<svg width="12" height="17" viewBox="0 0 12 17" fill="none" xmlns="http://www.w3.org/2000/svg">
  <path d="M9.94141 1.8789C9.94141 1.8789 9.6582 1.5957 9.0918 1.02929C8.52539 0.462887 7.4349 0.179684 5.82031 0.179684C4.20573 0.179684 2.83203 0.74609 1.69922 1.8789C0.566406 3.01171 0 4.38541 0 6C0 6.80729 0.195312 7.73177 0.585938 8.77343C0.976562 9.8151 1.45833 10.7917 2.03125 11.7031C2.60417 12.6146 3.17708 13.4609 3.75 14.2422C4.32292 15.0234 4.8112 15.6549 5.21484 16.1367C5.61849 16.6185 5.82031 16.8463 5.82031 16.8203C5.97656 16.6641 6.1849 16.4297 6.44531 16.1172C6.70573 15.8047 7.17448 15.1927 7.85156 14.2812C8.52865 13.3698 9.12109 12.4974 9.62891 11.6641C10.1367 10.8307 10.599 9.8802 11.0156 8.8125C11.4323 7.74479 11.6406 6.80729 11.6406 6C11.6406 4.38541 11.0742 3.01171 9.94141 1.8789ZM7.28516 7.46484C7.28516 7.46484 7.18424 7.56575 6.98242 7.76757C6.7806 7.9694 6.39323 8.07031 5.82031 8.07031C5.2474 8.07031 4.75911 7.86849 4.35547 7.46484C3.95182 7.06119 3.75 6.57291 3.75 6C3.75 5.42708 3.95182 4.9388 4.35547 4.53515C4.75911 4.13151 5.2474 3.92968 5.82031 3.92968C6.39323 3.92968 6.88151 4.13151 7.28516 4.53515C7.6888 4.9388 7.89062 5.42708 7.89062 6C7.89062 6.57291 7.6888 7.06119 7.28516 7.46484Z" fill="#FF7300" />
</svg>