<svg width="30" height="30" viewBox="0 0 30 30" fill="none" xmlns="http://www.w3.org/2000/svg">
  <path d="M15 5.74364C13.638 4.49127 11.8553 3.7962 10.005 3.79614C9.02568 3.79716 8.05622 3.99184 7.15243 4.36898C6.24863 4.74611 5.42834 5.29826 4.73876 5.99364C1.79751 8.94739 1.79876 13.5674 4.74126 16.5086L13.9063 25.6736C14.1188 26.0474 14.5288 26.2886 15 26.2886C15.1935 26.2868 15.3839 26.2395 15.5558 26.1507C15.7277 26.062 15.8765 25.9341 15.99 25.7774L25.2588 16.5086C28.2013 13.5661 28.2013 8.94739 25.2563 5.98864C24.567 5.29454 23.7474 4.74351 22.8445 4.36725C21.9416 3.99098 20.9732 3.79689 19.995 3.79614C18.1448 3.79645 16.3621 4.49148 15 5.74364ZM23.4888 7.75614C25.4425 9.71989 25.4438 12.7874 23.4913 14.7411L15 23.2324L6.50876 14.7411C4.55626 12.7874 4.55751 9.71989 6.50626 7.76114C7.45626 6.81614 8.69876 6.29614 10.005 6.29614C11.3113 6.29614 12.5488 6.81614 13.4913 7.75864L14.1163 8.38364C14.2322 8.49982 14.37 8.592 14.5216 8.65489C14.6733 8.71777 14.8358 8.75014 15 8.75014C15.1642 8.75014 15.3267 8.71777 15.4784 8.65489C15.63 8.592 15.7678 8.49982 15.8838 8.38364L16.5088 7.75864C18.3988 5.87239 21.6013 5.87739 23.4888 7.75614Z" fill="black" />
</svg>