<svg width="22" height="23" viewBox="0 0 22 23" fill="none" xmlns="http://www.w3.org/2000/svg">
  <path d="M19.0068 18.894V9.8538H17.1235C17.3095 10.4397 17.4025 11.0489 17.4025 11.6814C17.4025 12.8532 17.1049 13.9344 16.5096 14.9249C15.9144 15.9155 15.1052 16.699 14.0822 17.2757C13.0591 17.8523 11.943 18.1406 10.7339 18.1406C8.90173 18.1406 7.33458 17.5105 6.03249 16.2503C4.73041 14.99 4.07937 13.4671 4.07937 11.6814C4.07937 11.0489 4.17237 10.4397 4.35839 9.8538H2.39131V18.894C2.39131 19.1358 2.47269 19.3381 2.63545 19.5008C2.79821 19.6636 3.0005 19.745 3.24231 19.745H18.1558C18.3883 19.745 18.5883 19.6636 18.7557 19.5008C18.9231 19.3381 19.0068 19.1358 19.0068 18.894ZM13.7822 14.4088C13.7822 14.4088 13.9926 14.2053 14.4135 13.7984C14.8343 13.3915 15.0448 12.6114 15.0448 11.4581C15.0448 10.3049 14.6239 9.32134 13.7822 8.50753C12.9405 7.69373 11.9244 7.28683 10.7339 7.28683C9.55277 7.28683 8.54133 7.69373 7.69962 8.50753C6.85792 9.32134 6.43707 10.3049 6.43707 11.4581C6.43707 12.6114 6.85792 13.595 7.69962 14.4088C8.54133 15.2226 9.55277 15.6295 10.7339 15.6295C11.9244 15.6295 12.9405 15.2226 13.7822 14.4088ZM19.0068 6.43583V4.13393C19.0068 3.87351 18.9138 3.64797 18.7278 3.45731C18.5418 3.26665 18.3139 3.17132 18.0442 3.17132H15.6168C15.347 3.17132 15.1192 3.26665 14.9332 3.45731C14.7472 3.64797 14.6541 3.87351 14.6541 4.13393V6.43583C14.6541 6.70554 14.7472 6.93341 14.9332 7.11942C15.1192 7.30543 15.347 7.39844 15.6168 7.39844H18.0442C18.3139 7.39844 18.5418 7.30543 18.7278 7.11942C18.9138 6.93341 19.0068 6.70554 19.0068 6.43583ZM21.4343 3.53404V19.466C21.4343 20.2193 21.1646 20.8657 20.6251 21.4051C20.0857 21.9446 19.4393 22.2143 18.686 22.2143H2.75403C2.00068 22.2143 1.35429 21.9446 0.814859 21.4051C0.275424 20.8657 0.00570679 20.2193 0.00570679 19.466V3.53404C0.00570679 2.78069 0.275424 2.1343 0.814859 1.59487C1.35429 1.05543 2.00068 0.785716 2.75403 0.785716H18.686C19.4393 0.785716 20.0857 1.05543 20.6251 1.59487C21.1646 2.1343 21.4343 2.78069 21.4343 3.53404Z" fill="#FF7300" />
</svg>