<svg width="25" height="25" viewBox="0 0 25 25" fill="none" xmlns="http://www.w3.org/2000/svg">
  <path fill-rule="evenodd" clip-rule="evenodd" d="M3.64579 5.20837C3.36953 5.20837 3.10457 5.31812 2.90922 5.51347C2.71387 5.70882 2.60413 5.97377 2.60413 6.25004C2.60413 6.52631 2.71387 6.79126 2.90922 6.98661C3.10457 7.18196 3.36953 7.29171 3.64579 7.29171H21.3541C21.6304 7.29171 21.8953 7.18196 22.0907 6.98661C22.286 6.79126 22.3958 6.52631 22.3958 6.25004C22.3958 5.97377 22.286 5.70882 22.0907 5.51347C21.8953 5.31812 21.6304 5.20837 21.3541 5.20837H3.64579ZM2.60413 12.5C2.60413 12.2238 2.71387 11.9588 2.90922 11.7635C3.10457 11.5681 3.36953 11.4584 3.64579 11.4584H21.3541C21.6304 11.4584 21.8953 11.5681 22.0907 11.7635C22.286 11.9588 22.3958 12.2238 22.3958 12.5C22.3958 12.7763 22.286 13.0413 22.0907 13.2366C21.8953 13.432 21.6304 13.5417 21.3541 13.5417H3.64579C3.36953 13.5417 3.10457 13.432 2.90922 13.2366C2.71387 13.0413 2.60413 12.7763 2.60413 12.5ZM2.60413 18.7511C2.60413 18.4748 2.71387 18.2099 2.90922 18.0145C3.10457 17.8192 3.36953 17.7094 3.64579 17.7094H21.3541C21.6304 17.7094 21.8953 17.8192 22.0907 18.0145C22.286 18.2099 22.3958 18.4748 22.3958 18.7511C22.3958 19.0273 22.286 19.2923 22.0907 19.4877C21.8953 19.683 21.6304 19.7927 21.3541 19.7927H3.64579C3.36953 19.7927 3.10457 19.683 2.90922 19.4877C2.71387 19.2923 2.60413 19.0273 2.60413 18.7511Z" fill="#525252" />
</svg>