<svg width="20" height="21" viewBox="0 0 20 21" fill="none" xmlns="http://www.w3.org/2000/svg">
  <path d="M3.00781 9.48438C4.15365 11.8281 5.98958 13.6641 8.51562 14.9922L10.3516 13.1562C10.638 12.8698 10.9115 12.8177 11.1719 13C12.0833 13.3385 13.0859 13.5078 14.1797 13.5078C14.4141 13.5078 14.6094 13.5859 14.7656 13.7422C14.9219 13.8984 15 14.0938 15 14.3281V17.1797C15 17.4141 14.9219 17.6094 14.7656 17.7656C14.6094 17.9219 14.4141 18 14.1797 18C11.6016 18 9.22526 17.3685 7.05078 16.1055C4.8763 14.8424 3.15755 13.1237 1.89453 10.9492C0.63151 8.77474 0 6.39844 0 3.82031C0 3.58594 0.078125 3.39062 0.234375 3.23438C0.390625 3.07812 0.585938 3 0.820312 3H3.75C4.01042 3 4.21224 3.07812 4.35547 3.23438C4.4987 3.39062 4.57031 3.58594 4.57031 3.82031C4.57031 4.83594 4.73958 5.83854 5.07812 6.82812C5.15625 7.08854 5.10417 7.36198 4.92188 7.64844L3.00781 9.48438Z" fill="#FF7300" />
</svg>