<svg width="25" height="25" viewBox="0 0 25 25" fill="none" xmlns="http://www.w3.org/2000/svg">
  <path d="M4.16669 19.1667C4.16669 17.3986 4.60567 15.7029 5.38708 14.4526C6.16848 13.2024 7.22828 12.5 8.33335 12.5H16.6667C17.7718 12.5 18.8316 13.2024 19.613 14.4526C20.3944 15.7029 20.8334 17.3986 20.8334 19.1667C20.8334 20.0507 20.6139 20.8986 20.2232 21.5237C19.8325 22.1488 19.3026 22.5 18.75 22.5H6.25002C5.69749 22.5 5.16758 22.1488 4.77688 21.5237C4.38618 20.8986 4.16669 20.0507 4.16669 19.1667Z" stroke="black" stroke-width="2" stroke-linejoin="round" />
  <path d="M12.2917 9.16675C14.3628 9.16675 16.0417 7.48782 16.0417 5.41675C16.0417 3.34568 14.3628 1.66675 12.2917 1.66675C10.2206 1.66675 8.54169 3.34568 8.54169 5.41675C8.54169 7.48782 10.2206 9.16675 12.2917 9.16675Z" stroke="black" stroke-width="2" />
</svg>