<svg width="31" height="30" viewBox="0 0 31 30" fill="none" xmlns="http://www.w3.org/2000/svg">
  <path d="M27.0625 15H11.6188M6.1675 15H3.9375M6.1675 15C6.1675 14.2773 6.4546 13.5842 6.96563 13.0731C7.47667 12.5621 8.16979 12.275 8.8925 12.275C9.61522 12.275 10.3083 12.5621 10.8194 13.0731C11.3304 13.5842 11.6175 14.2773 11.6175 15C11.6175 15.7227 11.3304 16.4158 10.8194 16.9269C10.3083 17.4379 9.61522 17.725 8.8925 17.725C8.16979 17.725 7.47667 17.4379 6.96563 16.9269C6.4546 16.4158 6.1675 15.7227 6.1675 15ZM27.0625 23.2587H19.8775M19.8775 23.2587C19.8775 23.9816 19.5897 24.6755 19.0786 25.1867C18.5674 25.6978 17.8741 25.985 17.1513 25.985C16.4285 25.985 15.7354 25.6966 15.2244 25.1856C14.7133 24.6746 14.4262 23.9815 14.4262 23.2587M19.8775 23.2587C19.8775 22.5359 19.5897 21.8432 19.0786 21.3321C18.5674 20.8209 17.8741 20.5337 17.1513 20.5337C16.4285 20.5337 15.7354 20.8208 15.2244 21.3319C14.7133 21.8429 14.4262 22.536 14.4262 23.2587M14.4262 23.2587H3.9375M27.0625 6.74124H23.1813M17.73 6.74124H3.9375M17.73 6.74124C17.73 6.01852 18.0171 5.32541 18.5281 4.81437C19.0392 4.30333 19.7323 4.01624 20.455 4.01624C20.8129 4.01624 21.1672 4.08672 21.4978 4.22366C21.8284 4.36061 22.1288 4.56133 22.3819 4.81437C22.6349 5.06741 22.8356 5.36781 22.9726 5.69842C23.1095 6.02904 23.18 6.38338 23.18 6.74124C23.18 7.09909 23.1095 7.45344 22.9726 7.78405C22.8356 8.11466 22.6349 8.41506 22.3819 8.6681C22.1288 8.92114 21.8284 9.12186 21.4978 9.25881C21.1672 9.39575 20.8129 9.46623 20.455 9.46623C19.7323 9.46623 19.0392 9.17914 18.5281 8.6681C18.0171 8.15706 17.73 7.46395 17.73 6.74124Z" stroke="black" stroke-width="1.5" stroke-miterlimit="10" stroke-linecap="round" />
</svg>