<svg width="22" height="19" viewBox="0 0 22 19" fill="none" xmlns="http://www.w3.org/2000/svg">
  <path d="M21.9895 2.69196C21.3663 3.60342 20.613 4.38002 19.7294 5.02176C19.7387 5.15197 19.7434 5.34728 19.7434 5.6077C19.7434 6.81678 19.5667 8.02353 19.2132 9.22796C18.8598 10.4324 18.3227 11.588 17.6019 12.6948C16.8811 13.8015 16.0231 14.7804 15.028 15.6314C14.0328 16.4824 12.833 17.1614 11.4286 17.6682C10.0243 18.1751 8.52221 18.4286 6.92251 18.4286C4.40205 18.4286 2.0955 17.7543 0.00286865 16.4057C0.328389 16.4429 0.691113 16.4615 1.09104 16.4615C3.18367 16.4615 5.04844 15.8198 6.68535 14.5363C5.70878 14.5177 4.83453 14.2177 4.06258 13.6364C3.29063 13.0552 2.7605 12.3134 2.47218 11.4113C2.7791 11.4578 3.06276 11.481 3.32318 11.481C3.72311 11.481 4.11838 11.4299 4.50901 11.3276C3.46734 11.1137 2.60471 10.5951 1.92112 9.77204C1.23752 8.94894 0.895726 7.9933 0.895726 6.90513V6.84933C1.52817 7.20275 2.20711 7.39341 2.93256 7.42131C2.31872 7.01209 1.83044 6.4773 1.46771 5.81696C1.10499 5.15662 0.923628 4.44047 0.923628 3.66852C0.923628 2.85007 1.12824 2.09207 1.53747 1.39453C2.66284 2.78032 4.03235 3.88941 5.646 4.72182C7.25966 5.55422 8.98724 6.01692 10.8288 6.10993C10.7544 5.75651 10.7172 5.41239 10.7172 5.07756C10.7172 3.83128 11.1566 2.76869 12.0355 1.88979C12.9144 1.01088 13.977 0.571426 15.2233 0.571426C16.5254 0.571426 17.6228 1.04576 18.5157 1.99442C19.5295 1.7991 20.4828 1.43638 21.3756 0.906247C21.0315 1.97582 20.3712 2.80357 19.3946 3.38951C20.2596 3.2965 21.1245 3.06399 21.9895 2.69196Z" fill="#FF7300" />
</svg>