<svg width="30" height="30" viewBox="0 0 30 30" fill="none" xmlns="http://www.w3.org/2000/svg">
  <path d="M15.9949 8.38013L25.3699 17.7551C25.6341 18.0193 25.7825 18.3776 25.7825 18.7512C25.7825 19.1248 25.6341 19.4831 25.3699 19.7473C25.1057 20.0115 24.7474 20.1599 24.3738 20.1599C24.0002 20.1599 23.6419 20.0115 23.3777 19.7473L14.9999 11.3672L6.61987 19.745C6.48906 19.8758 6.33377 19.9795 6.16286 20.0503C5.99195 20.1211 5.80877 20.1576 5.62378 20.1576C5.43879 20.1576 5.2556 20.1211 5.08469 20.0503C4.91378 19.9795 4.75849 19.8758 4.62768 19.745C4.49687 19.6142 4.39311 19.4589 4.32232 19.288C4.25152 19.1171 4.21509 18.9339 4.21509 18.7489C4.21509 18.5639 4.25152 18.3807 4.32232 18.2098C4.39311 18.0389 4.49687 17.8836 4.62768 17.7528L14.0027 8.37779C14.1335 8.24684 14.2888 8.143 14.4599 8.07223C14.6309 8.00145 14.8142 7.96513 14.9993 7.96535C15.1843 7.96557 15.3676 8.00232 15.5384 8.0735C15.7093 8.14467 15.8644 8.24887 15.9949 8.38013Z" fill="#FF7300" />
</svg>